<svg width="20" height="20" viewBox="0 0 20 20" fill="none" xmlns="http://www.w3.org/2000/svg">
    <path
        d="M13.2988 9.60715L9.1459 6.58829C8.99349 6.47781 8.79117 6.46117 8.62412 6.54702C8.45574 6.63221 8.35059 6.80525 8.35059 6.99227V13.028C8.35059 13.217 8.45574 13.3894 8.62412 13.4746C8.69533 13.5105 8.7732 13.5285 8.85173 13.5285C8.95423 13.5285 9.05805 13.4959 9.1459 13.4313L13.2988 10.4151C13.43 10.3186 13.5065 10.1695 13.5065 10.0111C13.5072 9.85007 13.4286 9.70166 13.2988 9.60715Z"
        fill="currentColor" />
    <path
        d="M10.0003 0C4.47639 0 0 4.47639 0 10.0003C0 15.5223 4.47639 19.9973 10.0003 19.9973C15.5229 19.9973 20 15.5216 20 10.0003C20.0007 4.47639 15.5229 0 10.0003 0ZM10.0003 18.3288C5.40015 18.3288 1.67049 14.6012 1.67049 10.0003C1.67049 5.40148 5.40015 1.66916 10.0003 1.66916C14.5998 1.66916 18.3288 5.40082 18.3288 10.0003C18.3295 14.6012 14.5998 18.3288 10.0003 18.3288Z"
        fill="currentColor" />
</svg>